<mxfile host="app.diagrams.net" modified="2022-09-08T15:38:12.195Z" agent="5.0 (Windows NT 10.0; Win64; x64) AppleWebKit/537.36 (KHTML, like Gecko) Chrome/104.0.5112.102 Safari/537.36 Edg/104.0.1293.63" etag="fJSxN-Kwq9vp8s1fh4oo" version="20.2.8" type="github">
  <diagram id="UlHVcAD68Zj0mifvGkCI" name="第 1 页">
    <mxGraphModel dx="1038" dy="1748" grid="1" gridSize="10" guides="1" tooltips="1" connect="1" arrows="1" fold="1" page="1" pageScale="1" pageWidth="827" pageHeight="1169" math="0" shadow="0">
      <root>
        <mxCell id="0" />
        <mxCell id="1" parent="0" />
        <mxCell id="tXmrCc0qoYKCxtDVC8vD-1" value="xml" style="rounded=0;whiteSpace=wrap;html=1;" parent="1" vertex="1">
          <mxGeometry x="20" y="160" width="120" height="60" as="geometry" />
        </mxCell>
        <mxCell id="tXmrCc0qoYKCxtDVC8vD-6" style="edgeStyle=orthogonalEdgeStyle;rounded=0;orthogonalLoop=1;jettySize=auto;html=1;" parent="1" source="tXmrCc0qoYKCxtDVC8vD-2" edge="1">
          <mxGeometry relative="1" as="geometry">
            <mxPoint x="310" y="200" as="targetPoint" />
          </mxGeometry>
        </mxCell>
        <mxCell id="tXmrCc0qoYKCxtDVC8vD-2" value="yml" style="rounded=0;whiteSpace=wrap;html=1;" parent="1" vertex="1">
          <mxGeometry x="20" y="265" width="120" height="60" as="geometry" />
        </mxCell>
        <mxCell id="tXmrCc0qoYKCxtDVC8vD-3" value="抽象层定义bean解析器&lt;br&gt;将配置文件中的bean信息转化为BeanDefination对象放入Bean工厂中" style="rounded=1;whiteSpace=wrap;html=1;" parent="1" vertex="1">
          <mxGeometry x="170" y="-30" width="120" height="120" as="geometry" />
        </mxCell>
        <mxCell id="tXmrCc0qoYKCxtDVC8vD-4" value="BeanDefinationReader" style="rounded=1;whiteSpace=wrap;html=1;" parent="1" vertex="1">
          <mxGeometry x="170" y="310" width="150" height="60" as="geometry" />
        </mxCell>
        <mxCell id="tXmrCc0qoYKCxtDVC8vD-5" value="" style="endArrow=classic;html=1;rounded=0;exitX=1.003;exitY=0.633;exitDx=0;exitDy=0;exitPerimeter=0;entryX=-0.006;entryY=0.47;entryDx=0;entryDy=0;entryPerimeter=0;" parent="1" source="tXmrCc0qoYKCxtDVC8vD-1" target="tXmrCc0qoYKCxtDVC8vD-7" edge="1">
          <mxGeometry width="50" height="50" relative="1" as="geometry">
            <mxPoint x="150" y="158" as="sourcePoint" />
            <mxPoint x="480" y="198" as="targetPoint" />
          </mxGeometry>
        </mxCell>
        <mxCell id="tXmrCc0qoYKCxtDVC8vD-9" value="BeanFactory" style="rounded=0;whiteSpace=wrap;html=1;" parent="1" vertex="1">
          <mxGeometry x="490" y="-110" width="440" height="60" as="geometry" />
        </mxCell>
        <mxCell id="tXmrCc0qoYKCxtDVC8vD-7" value="" style="whiteSpace=wrap;html=1;aspect=fixed;" parent="1" vertex="1">
          <mxGeometry x="490" y="-40" width="500" height="500" as="geometry" />
        </mxCell>
        <mxCell id="tXmrCc0qoYKCxtDVC8vD-29" style="edgeStyle=orthogonalEdgeStyle;rounded=0;orthogonalLoop=1;jettySize=auto;html=1;entryX=0;entryY=0.5;entryDx=0;entryDy=0;" parent="1" source="tXmrCc0qoYKCxtDVC8vD-10" target="tXmrCc0qoYKCxtDVC8vD-24" edge="1">
          <mxGeometry relative="1" as="geometry">
            <Array as="points">
              <mxPoint x="680" y="280" />
              <mxPoint x="680" y="20" />
            </Array>
          </mxGeometry>
        </mxCell>
        <mxCell id="tXmrCc0qoYKCxtDVC8vD-10" value="bean实例化&lt;br&gt;通过工厂通过反射生成bean实例" style="rounded=1;whiteSpace=wrap;html=1;" parent="1" vertex="1">
          <mxGeometry x="530" y="250" width="120" height="60" as="geometry" />
        </mxCell>
        <mxCell id="tXmrCc0qoYKCxtDVC8vD-23" style="edgeStyle=orthogonalEdgeStyle;rounded=0;orthogonalLoop=1;jettySize=auto;html=1;" parent="1" source="tXmrCc0qoYKCxtDVC8vD-14" target="tXmrCc0qoYKCxtDVC8vD-10" edge="1">
          <mxGeometry relative="1" as="geometry" />
        </mxCell>
        <mxCell id="tXmrCc0qoYKCxtDVC8vD-14" value="" style="rounded=1;whiteSpace=wrap;html=1;fillColor=#ffe6cc;strokeColor=#d79b00;" parent="1" vertex="1">
          <mxGeometry x="520" width="140" height="210" as="geometry" />
        </mxCell>
        <mxCell id="tXmrCc0qoYKCxtDVC8vD-11" value="&#xa;&lt;span style=&quot;color: rgb(0, 0, 0); font-family: Helvetica; font-size: 12px; font-style: normal; font-variant-ligatures: normal; font-variant-caps: normal; font-weight: 400; letter-spacing: normal; orphans: 2; text-align: left; text-indent: 0px; text-transform: none; widows: 2; word-spacing: 0px; -webkit-text-stroke-width: 0px; background-color: rgb(248, 249, 250); text-decoration-thickness: initial; text-decoration-style: initial; text-decoration-color: initial; float: none; display: inline !important;&quot;&gt;BeanFactoryPostProcessor&lt;/span&gt;&#xa;&#xa;" style="rounded=0;whiteSpace=wrap;html=1;" parent="1" vertex="1">
          <mxGeometry x="530" y="70" width="120" height="40" as="geometry" />
        </mxCell>
        <mxCell id="tXmrCc0qoYKCxtDVC8vD-12" value="&lt;span style=&quot;text-align: left;&quot;&gt;BeanFactoryPostProcessor&lt;/span&gt;" style="rounded=0;whiteSpace=wrap;html=1;" parent="1" vertex="1">
          <mxGeometry x="530" y="130" width="120" height="40" as="geometry" />
        </mxCell>
        <mxCell id="tXmrCc0qoYKCxtDVC8vD-13" value="&lt;span style=&quot;text-align: left;&quot;&gt;BeanFactoryPostProcessor&lt;/span&gt;" style="rounded=0;whiteSpace=wrap;html=1;" parent="1" vertex="1">
          <mxGeometry x="530" y="10" width="120" height="40" as="geometry" />
        </mxCell>
        <mxCell id="tXmrCc0qoYKCxtDVC8vD-16" value="" style="strokeWidth=2;html=1;shape=mxgraph.flowchart.annotation_2;align=left;labelPosition=right;pointerEvents=1;" parent="1" vertex="1">
          <mxGeometry x="480" y="40" width="40" height="100" as="geometry" />
        </mxCell>
        <mxCell id="tXmrCc0qoYKCxtDVC8vD-17" value="BeanFactoryPostProcessor&lt;br&gt;可以对Bean的信息进行修改，及对BeanDefination的属性（是否单例，初始化方法，是否注入，是否是懒加载等信息进行修改）" style="whiteSpace=wrap;html=1;align=left;strokeWidth=2;" parent="1" vertex="1">
          <mxGeometry x="330" y="20" width="150" height="100" as="geometry" />
        </mxCell>
        <mxCell id="tXmrCc0qoYKCxtDVC8vD-32" style="edgeStyle=orthogonalEdgeStyle;rounded=0;orthogonalLoop=1;jettySize=auto;html=1;" parent="1" source="tXmrCc0qoYKCxtDVC8vD-24" target="tXmrCc0qoYKCxtDVC8vD-30" edge="1">
          <mxGeometry relative="1" as="geometry" />
        </mxCell>
        <mxCell id="tXmrCc0qoYKCxtDVC8vD-24" value="属性填充&lt;br&gt;调用setter方法堆属性进行赋值" style="rounded=1;whiteSpace=wrap;html=1;" parent="1" vertex="1">
          <mxGeometry x="750" y="-20" width="120" height="70" as="geometry" />
        </mxCell>
        <mxCell id="tXmrCc0qoYKCxtDVC8vD-33" style="edgeStyle=orthogonalEdgeStyle;rounded=0;orthogonalLoop=1;jettySize=auto;html=1;entryX=0.5;entryY=0;entryDx=0;entryDy=0;" parent="1" source="tXmrCc0qoYKCxtDVC8vD-30" target="tXmrCc0qoYKCxtDVC8vD-31" edge="1">
          <mxGeometry relative="1" as="geometry" />
        </mxCell>
        <mxCell id="tXmrCc0qoYKCxtDVC8vD-30" value="&lt;div class=&quot;lake-content&quot;&gt;赋值各种aware接口&lt;/div&gt;&lt;div class=&quot;lake-content&quot;&gt;即为bean中涉及到容器属性的bean设置spring内置的属性&lt;/div&gt;" style="rounded=0;whiteSpace=wrap;html=1;" parent="1" vertex="1">
          <mxGeometry x="735" y="67.5" width="150" height="52.5" as="geometry" />
        </mxCell>
        <mxCell id="tXmrCc0qoYKCxtDVC8vD-35" style="edgeStyle=orthogonalEdgeStyle;rounded=0;orthogonalLoop=1;jettySize=auto;html=1;entryX=0.5;entryY=0;entryDx=0;entryDy=0;" parent="1" source="tXmrCc0qoYKCxtDVC8vD-31" target="tXmrCc0qoYKCxtDVC8vD-34" edge="1">
          <mxGeometry relative="1" as="geometry" />
        </mxCell>
        <mxCell id="tXmrCc0qoYKCxtDVC8vD-39" style="edgeStyle=orthogonalEdgeStyle;rounded=0;orthogonalLoop=1;jettySize=auto;html=1;entryX=0;entryY=0.5;entryDx=0;entryDy=0;" parent="1" source="tXmrCc0qoYKCxtDVC8vD-31" target="tXmrCc0qoYKCxtDVC8vD-41" edge="1">
          <mxGeometry relative="1" as="geometry">
            <mxPoint x="1020" y="152.5" as="targetPoint" />
          </mxGeometry>
        </mxCell>
        <mxCell id="tXmrCc0qoYKCxtDVC8vD-31" value="postProcessBeforeInitialization" style="rounded=0;whiteSpace=wrap;html=1;" parent="1" vertex="1">
          <mxGeometry x="750" y="130" width="120" height="45" as="geometry" />
        </mxCell>
        <mxCell id="tXmrCc0qoYKCxtDVC8vD-37" value="" style="edgeStyle=orthogonalEdgeStyle;rounded=0;orthogonalLoop=1;jettySize=auto;html=1;startArrow=none;" parent="1" source="RdK4mdnQ-tFFZLlzZody-1" target="tXmrCc0qoYKCxtDVC8vD-36" edge="1">
          <mxGeometry relative="1" as="geometry" />
        </mxCell>
        <mxCell id="tXmrCc0qoYKCxtDVC8vD-34" value="afterPropertiesSet()方法" style="rounded=1;whiteSpace=wrap;html=1;" parent="1" vertex="1">
          <mxGeometry x="750" y="197.5" width="120" height="42.5" as="geometry" />
        </mxCell>
        <mxCell id="tXmrCc0qoYKCxtDVC8vD-40" style="edgeStyle=orthogonalEdgeStyle;rounded=0;orthogonalLoop=1;jettySize=auto;html=1;entryX=0;entryY=0.5;entryDx=0;entryDy=0;" parent="1" source="tXmrCc0qoYKCxtDVC8vD-36" target="tXmrCc0qoYKCxtDVC8vD-41" edge="1">
          <mxGeometry relative="1" as="geometry">
            <mxPoint x="1010" y="160" as="targetPoint" />
          </mxGeometry>
        </mxCell>
        <mxCell id="tXmrCc0qoYKCxtDVC8vD-44" value="" style="edgeStyle=orthogonalEdgeStyle;rounded=0;orthogonalLoop=1;jettySize=auto;html=1;" parent="1" source="tXmrCc0qoYKCxtDVC8vD-36" target="tXmrCc0qoYKCxtDVC8vD-43" edge="1">
          <mxGeometry relative="1" as="geometry" />
        </mxCell>
        <mxCell id="tXmrCc0qoYKCxtDVC8vD-36" value="&lt;div class=&quot;lake-content&quot;&gt;&lt;span class=&quot;ne-text&quot;&gt;postProcessAfterInitialization&lt;/span&gt;&lt;/div&gt;" style="rounded=0;whiteSpace=wrap;html=1;" parent="1" vertex="1">
          <mxGeometry x="750" y="330" width="120" height="45" as="geometry" />
        </mxCell>
        <mxCell id="RdK4mdnQ-tFFZLlzZody-9" value="" style="edgeStyle=orthogonalEdgeStyle;rounded=0;orthogonalLoop=1;jettySize=auto;html=1;" edge="1" parent="1" source="tXmrCc0qoYKCxtDVC8vD-41" target="RdK4mdnQ-tFFZLlzZody-8">
          <mxGeometry relative="1" as="geometry" />
        </mxCell>
        <mxCell id="tXmrCc0qoYKCxtDVC8vD-41" value="BeanPostProcessor&lt;br&gt;后置增强器，在bean的初始化过程可以进行AOP的代理等操作，对bean进行扩展" style="rounded=1;whiteSpace=wrap;html=1;" parent="1" vertex="1">
          <mxGeometry x="1110" y="175" width="230" height="105" as="geometry" />
        </mxCell>
        <mxCell id="tXmrCc0qoYKCxtDVC8vD-46" value="" style="edgeStyle=orthogonalEdgeStyle;rounded=0;orthogonalLoop=1;jettySize=auto;html=1;startArrow=none;" parent="1" source="RdK4mdnQ-tFFZLlzZody-5" target="tXmrCc0qoYKCxtDVC8vD-45" edge="1">
          <mxGeometry relative="1" as="geometry" />
        </mxCell>
        <mxCell id="tXmrCc0qoYKCxtDVC8vD-43" value="&lt;div class=&quot;lake-content&quot;&gt;使用bean&lt;/div&gt;" style="rounded=0;whiteSpace=wrap;html=1;" parent="1" vertex="1">
          <mxGeometry x="750" y="400" width="120" height="45" as="geometry" />
        </mxCell>
        <mxCell id="tXmrCc0qoYKCxtDVC8vD-45" value="&lt;div class=&quot;lake-content&quot;&gt;销毁bean&lt;/div&gt;" style="rounded=0;whiteSpace=wrap;html=1;" parent="1" vertex="1">
          <mxGeometry x="750" y="600" width="120" height="45" as="geometry" />
        </mxCell>
        <mxCell id="RdK4mdnQ-tFFZLlzZody-1" value="自定义的init-method方法" style="rounded=1;whiteSpace=wrap;html=1;" vertex="1" parent="1">
          <mxGeometry x="750" y="258.75" width="120" height="42.5" as="geometry" />
        </mxCell>
        <mxCell id="RdK4mdnQ-tFFZLlzZody-2" value="" style="edgeStyle=orthogonalEdgeStyle;rounded=0;orthogonalLoop=1;jettySize=auto;html=1;endArrow=none;" edge="1" parent="1" source="tXmrCc0qoYKCxtDVC8vD-34" target="RdK4mdnQ-tFFZLlzZody-1">
          <mxGeometry relative="1" as="geometry">
            <mxPoint x="810" y="240" as="sourcePoint" />
            <mxPoint x="810" y="330" as="targetPoint" />
          </mxGeometry>
        </mxCell>
        <mxCell id="RdK4mdnQ-tFFZLlzZody-3" value="&lt;div class=&quot;lake-content&quot;&gt;postProcessBeforeDestruction&lt;/div&gt;" style="rounded=0;whiteSpace=wrap;html=1;" vertex="1" parent="1">
          <mxGeometry x="750" y="470" width="120" height="45" as="geometry" />
        </mxCell>
        <mxCell id="RdK4mdnQ-tFFZLlzZody-4" value="" style="edgeStyle=orthogonalEdgeStyle;rounded=0;orthogonalLoop=1;jettySize=auto;html=1;endArrow=none;" edge="1" parent="1" source="tXmrCc0qoYKCxtDVC8vD-43" target="RdK4mdnQ-tFFZLlzZody-3">
          <mxGeometry relative="1" as="geometry">
            <mxPoint x="810" y="445" as="sourcePoint" />
            <mxPoint x="810" y="562" as="targetPoint" />
          </mxGeometry>
        </mxCell>
        <mxCell id="RdK4mdnQ-tFFZLlzZody-5" value="&lt;div class=&quot;lake-content&quot;&gt;自定义的destory方法&lt;/div&gt;" style="rounded=0;whiteSpace=wrap;html=1;" vertex="1" parent="1">
          <mxGeometry x="750" y="530" width="120" height="45" as="geometry" />
        </mxCell>
        <mxCell id="RdK4mdnQ-tFFZLlzZody-6" value="" style="edgeStyle=orthogonalEdgeStyle;rounded=0;orthogonalLoop=1;jettySize=auto;html=1;startArrow=none;endArrow=none;" edge="1" parent="1" source="RdK4mdnQ-tFFZLlzZody-3" target="RdK4mdnQ-tFFZLlzZody-5">
          <mxGeometry relative="1" as="geometry">
            <mxPoint x="810" y="515" as="sourcePoint" />
            <mxPoint x="810" y="620" as="targetPoint" />
          </mxGeometry>
        </mxCell>
        <mxCell id="RdK4mdnQ-tFFZLlzZody-11" value="" style="edgeStyle=orthogonalEdgeStyle;rounded=0;orthogonalLoop=1;jettySize=auto;html=1;" edge="1" parent="1" source="RdK4mdnQ-tFFZLlzZody-8" target="RdK4mdnQ-tFFZLlzZody-10">
          <mxGeometry relative="1" as="geometry" />
        </mxCell>
        <mxCell id="RdK4mdnQ-tFFZLlzZody-13" style="edgeStyle=orthogonalEdgeStyle;rounded=0;orthogonalLoop=1;jettySize=auto;html=1;exitX=1;exitY=0.5;exitDx=0;exitDy=0;" edge="1" parent="1" source="RdK4mdnQ-tFFZLlzZody-8" target="RdK4mdnQ-tFFZLlzZody-12">
          <mxGeometry relative="1" as="geometry" />
        </mxCell>
        <mxCell id="RdK4mdnQ-tFFZLlzZody-8" value="AOP增强 动态代理" style="whiteSpace=wrap;html=1;rounded=1;" vertex="1" parent="1">
          <mxGeometry x="1165" y="322.5" width="120" height="60" as="geometry" />
        </mxCell>
        <mxCell id="RdK4mdnQ-tFFZLlzZody-10" value="JDK" style="whiteSpace=wrap;html=1;rounded=1;" vertex="1" parent="1">
          <mxGeometry x="1330" y="290" width="120" height="60" as="geometry" />
        </mxCell>
        <mxCell id="RdK4mdnQ-tFFZLlzZody-12" value="Cglib" style="whiteSpace=wrap;html=1;rounded=1;" vertex="1" parent="1">
          <mxGeometry x="1330" y="360" width="120" height="60" as="geometry" />
        </mxCell>
        <mxCell id="RdK4mdnQ-tFFZLlzZody-14" value="如果一个对象需要创建代理对象，那么是否会通过反射创建对应的普通对象，也就是bean的初始化操作，属性填充操作会不会做？&lt;br&gt;一定会去创建一个普通的实例化对象&lt;br&gt;所以叫扩展" style="text;html=1;strokeColor=none;fillColor=none;align=center;verticalAlign=middle;whiteSpace=wrap;rounded=0;" vertex="1" parent="1">
          <mxGeometry x="970" y="490" width="300" height="70" as="geometry" />
        </mxCell>
        <mxCell id="RdK4mdnQ-tFFZLlzZody-15" value="如果想在不同阶段做不同的处理工作，该怎么办？&lt;br&gt;观察者模式(监听器，监听事件，广播器)" style="text;html=1;strokeColor=none;fillColor=none;align=center;verticalAlign=middle;whiteSpace=wrap;rounded=0;" vertex="1" parent="1">
          <mxGeometry x="250" y="690" width="710" height="40" as="geometry" />
        </mxCell>
      </root>
    </mxGraphModel>
  </diagram>
</mxfile>
